<svg xmlns="http://www.w3.org/2000/svg" width="1200" height="700" viewBox="0 0 1200 700">
  <defs>
    <linearGradient id="bg" x1="0" y1="0" x2="1" y2="1">
      <stop offset="0" stop-color="#eef2ff"/>
      <stop offset="1" stop-color="#ecfeff"/>
    </linearGradient>
    <linearGradient id="card" x1="0" y1="0" x2="1" y2="1">
      <stop offset="0" stop-color="#ffffff" stop-opacity="0.95"/>
      <stop offset="1" stop-color="#ffffff" stop-opacity="0.75"/>
    </linearGradient>
  </defs>
  <rect width="1200" height="700" fill="url(#bg)"/>
  <g opacity="0.9">
    <circle cx="1020" cy="140" r="120" fill="#3b82f6" opacity="0.12"/>
    <circle cx="180" cy="560" r="160" fill="#10b981" opacity="0.10"/>
  </g>
  <g transform="translate(260 170)">
    <rect x="0" y="0" width="680" height="360" rx="28" fill="url(#card)" stroke="#e5e7eb"/>
    <rect x="44" y="48" width="92" height="92" rx="18" fill="#f3f4f6" stroke="#e5e7eb"/>
    <path d="M78 100h24" stroke="#9ca3af" stroke-width="10" stroke-linecap="round"/>
    <path d="M60 160h560" stroke="#e5e7eb" stroke-width="2"/>
    <rect x="44" y="190" width="420" height="22" rx="11" fill="#dbeafe"/>
    <rect x="44" y="232" width="560" height="16" rx="8" fill="#e5e7eb"/>
    <rect x="44" y="260" width="520" height="16" rx="8" fill="#e5e7eb"/>
    <rect x="44" y="288" width="360" height="16" rx="8" fill="#e5e7eb"/>
    <g transform="translate(44 330)">
      <rect x="0" y="0" width="140" height="34" rx="17" fill="#eff6ff" stroke="#bfdbfe"/>
      <text x="70" y="23" text-anchor="middle" font-family="Inter, system-ui, -apple-system, Segoe UI, Roboto, Arial" font-size="14" fill="#1d4ed8" font-weight="700">
        OFFRE
      </text>
      <rect x="160" y="0" width="160" height="34" rx="17" fill="#ecfdf5" stroke="#bbf7d0"/>
      <text x="240" y="23" text-anchor="middle" font-family="Inter, system-ui, -apple-system, Segoe UI, Roboto, Arial" font-size="14" fill="#047857" font-weight="700">
        EMPLOI
      </text>
    </g>
  </g>
</svg>
